HIERARCHY
ROOT Hips
{
	OFFSET 0.000000 0.000000 0.000000 
	CHANNELS 6 Xposition Yposition Zposition Xrotation Yrotation Zrotation
	JOINT LeftUpLeg
	{
		OFFSET 3.342020 0.000000 0.000000 
		CHANNELS 3 Xrotation Yrotation Zrotation
		JOINT LeftLeg
		{
			OFFSET 0.000000 -16.596310 0.000000 
			CHANNELS 3 Xrotation Yrotation Zrotation
			JOINT LeftFoot
			{
				OFFSET 0.000000 -16.136620 0.000000 
				CHANNELS 3 Xrotation Yrotation Zrotation
				JOINT LeftToeBase
				{
					OFFSET 0.000000 -1.700460 6.346200 
					CHANNELS 3 Xrotation Yrotation Zrotation
					End Site
					{
						OFFSET 0.000000 0.000000 2.952750 
					}
				}
			}
		}
	}
	JOINT RightUpLeg
	{
		OFFSET -3.342020 0.000000 0.000000 
		CHANNELS 3 Xrotation Yrotation Zrotation
		JOINT RightLeg
		{
			OFFSET 0.000000 -16.596310 0.000000 
			CHANNELS 3 Xrotation Yrotation Zrotation
			JOINT RightFoot
			{
				OFFSET 0.000000 -16.136620 0.000000 
				CHANNELS 3 Xrotation Yrotation Zrotation
				JOINT RightToeBase
				{
					OFFSET 0.000000 -1.700460 6.346200 
					CHANNELS 3 Xrotation Yrotation Zrotation
					End Site
					{
						OFFSET 0.000000 0.000000 2.952750 
					}
				}
			}
		}
	}
	JOINT Spine
	{
		OFFSET 0.000000 0.039370 0.000000 
		CHANNELS 3 Xrotation Yrotation Zrotation
		JOINT Spine1
		{
			OFFSET 0.000000 9.257930 0.000000 
			CHANNELS 3 Xrotation Yrotation Zrotation
			JOINT Neck
			{
				OFFSET 0.000000 8.814710 0.000000 
				CHANNELS 3 Xrotation Yrotation Zrotation
				JOINT Head
				{
					OFFSET 0.000000 6.894950 0.000000 
					CHANNELS 3 Xrotation Yrotation Zrotation
					End Site
					{
						OFFSET 0.000000 4.527550 0.000000 
					}
				}
			}
			JOINT LeftShoulder
			{
				OFFSET 0.000000 8.814710 0.000000 
				CHANNELS 3 Xrotation Yrotation Zrotation
				JOINT LeftArm
				{
					OFFSET 7.311640 -0.000030 0.000000 
					CHANNELS 3 Xrotation Yrotation Zrotation
					JOINT LeftForeArm
					{
						OFFSET 10.818440 -0.000040 0.000000 
						CHANNELS 3 Xrotation Yrotation Zrotation
						JOINT LeftHand
						{
							OFFSET 10.194780 -0.000040 0.000000 
							CHANNELS 3 Xrotation Yrotation Zrotation
							JOINT LeftHandThumb
							{
								OFFSET 0.000000 0.000000 0.000000 
								CHANNELS 3 Xrotation Yrotation Zrotation
								End Site
								{
									OFFSET 0.000000 0.000000 3.937000 
								}
							}
							JOINT L_Wrist_End
							{
								OFFSET 3.937000 -0.000010 0.000000 
								CHANNELS 3 Xrotation Yrotation Zrotation
							}
						}
					}
				}
			}
			JOINT RightShoulder
			{
				OFFSET 0.000000 8.814710 0.000000 
				CHANNELS 3 Xrotation Yrotation Zrotation
				JOINT RightArm
				{
					OFFSET -7.311640 -0.000030 0.000000 
					CHANNELS 3 Xrotation Yrotation Zrotation
					JOINT RightForeArm
					{
						OFFSET -10.818440 -0.000040 0.000000 
						CHANNELS 3 Xrotation Yrotation Zrotation
						JOINT RightHand
						{
							OFFSET -10.194780 -0.000040 0.000000 
							CHANNELS 3 Xrotation Yrotation Zrotation
							JOINT RightHandThumb
							{
								OFFSET 0.000000 0.000000 0.000000 
								CHANNELS 3 Xrotation Yrotation Zrotation
								End Site
								{
									OFFSET 0.000000 0.000000 3.937000 
								}
							}
							JOINT R_Wrist_End
							{
								OFFSET -5.393690 -0.000020 0.000000 
								CHANNELS 3 Xrotation Yrotation Zrotation
							}
						}
					}
				}
			}
		}
	}
}
MOTION
Frames: 11
Frame Time: 0.008333
0.000000 33.735874 0.000000 32.261230 78.123810 -33.446754 -30.733305 6.682367 6.298193 13.043009 0.000000 0.000000 2.052492 0.409388 -0.851317 -15.572515 0.000000 0.000000 8.178997 -5.784555 -1.083192 20.078676 0.000000 0.000000 -16.843174 7.546902 -0.159028 -26.736790 0.000000 0.000000 -6.771448 4.117812 -0.240430 0.994157 -1.872080 -0.964920 14.153113 -14.360172 0.207508 -6.090543 -29.027060 8.086568 -0.442878 11.830782 7.076250 15.804633 3.734342 -78.983902 0.000000 -11.174811 0.000000 -3.033650 -2.334732 6.489306 0.000000 0.000000 0.000000 0.000000 0.000000 0.000000 -13.018155 -1.298647 -6.065640 0.053550 29.469372 77.779030 -0.000252 51.579086 0.000152 5.474747 -2.178378 -8.611280 0.000000 0.000000 0.000000 0.000000 0.000000 0.000000 
0.000000 33.719719 0.000000 32.587460 78.080917 -33.456352 -30.605560 6.221734 5.784787 13.832367 0.000000 0.000000 2.628333 0.288227 -1.496933 -15.755980 0.000000 0.000000 8.056093 -5.922560 -1.595733 21.320854 0.000000 0.000000 -16.240446 7.640553 -0.417107 -28.471981 0.000000 0.000000 -6.813046 4.150273 -0.409860 0.806913 -1.800160 -1.198940 14.136127 -14.492393 0.267067 -5.998687 -29.126566 8.146087 -0.462707 11.909113 7.122000 15.829066 3.733633 -78.903046 0.000000 -11.246674 0.000000 -3.167600 -2.407913 6.422313 0.000000 0.000000 0.000000 0.000000 0.000000 0.000000 -12.863260 -1.434993 -5.976180 0.653300 29.684240 77.698158 -0.000253 51.409325 0.000053 5.555694 -2.135407 -8.650661 0.000000 0.000000 0.000000 0.000000 0.000000 0.000000 
0.000000 33.711063 0.000000 33.035290 78.028229 -33.587257 -30.472116 5.848700 5.279280 14.519526 0.000000 0.000000 3.681575 0.035165 -1.556450 -15.572845 0.000000 0.000000 7.862989 -5.905165 -2.116975 22.609730 0.000000 0.000000 -15.409119 7.692705 -0.456685 -30.282171 0.000000 0.000000 -6.869245 4.179735 -0.579690 0.588970 -1.732840 -1.436760 14.110840 -14.543814 0.259225 -5.805330 -29.308676 8.328105 -0.433635 11.992044 7.136350 15.804899 3.695225 -78.794998 0.000000 -11.341635 0.000000 -3.396150 -2.445295 6.296020 0.000000 0.000000 0.000000 0.000000 0.000000 0.000000 -12.712666 -1.628940 -5.900220 1.225650 29.952011 77.674789 -0.000255 51.090363 0.000055 5.689540 -2.043235 -8.653440 0.000000 0.000000 0.000000 0.000000 0.000000 0.000000 
0.000000 33.706306 0.000000 33.412422 77.966736 -33.559654 -30.378271 5.504066 4.684674 15.357183 0.000000 0.000000 4.443217 0.174503 -1.662167 -15.338711 0.000000 0.000000 7.447987 -5.969070 -2.790517 24.261007 0.000000 0.000000 -14.562094 7.854657 -0.479963 -32.286861 0.000000 0.000000 -6.866944 4.203297 -0.788120 0.367127 -1.661020 -1.704980 13.979653 -14.740236 0.363783 -5.667573 -29.335182 8.219423 -0.453263 12.137477 7.181800 15.708433 3.611116 -78.753448 0.000000 -11.362997 0.000000 -3.518000 -2.497576 6.243227 0.000000 0.000000 0.000000 0.000000 0.000000 0.000000 -12.558870 -1.732687 -5.859960 1.831700 30.117180 77.672821 -0.000257 50.795204 0.000057 5.863287 -1.999763 -8.560321 0.000000 0.000000 0.000000 0.000000 0.000000 0.000000 
0.000000 33.712952 0.000000 34.000847 77.903145 -33.663361 -30.300426 5.298133 4.033167 16.194443 0.000000 0.000000 4.897158 0.506742 -1.811483 -15.275175 0.000000 0.000000 6.863183 -6.021075 -3.554658 26.079685 0.000000 0.000000 -13.516167 7.999108 -0.534042 -34.523052 0.000000 0.000000 -6.869142 4.225358 -1.006850 0.095183 -1.587500 -2.035100 13.965567 -14.748458 0.305042 -5.535817 -29.568991 8.439941 -0.397292 12.181108 7.122450 15.580767 3.580008 -78.642792 0.000000 -11.431159 0.000000 -3.654950 -2.493558 6.152733 0.000000 0.000000 0.000000 0.000000 0.000000 0.000000 -12.406875 -1.892433 -5.823400 2.405150 30.333752 77.713448 -0.000258 50.364742 0.000058 6.090933 -1.972492 -8.460601 0.000000 0.000000 0.000000 0.000000 0.000000 0.000000 
0.000000 33.724800 0.000000 34.480881 77.825455 -33.604057 -30.240480 5.289400 3.338660 17.095001 0.000000 0.000000 5.295200 0.909780 -1.658400 -15.116840 0.000000 0.000000 6.132480 -5.917980 -4.371800 28.140661 0.000000 0.000000 -12.333739 8.033960 -0.574520 -36.798840 0.000000 0.000000 -6.832840 4.271020 -1.261080 -0.189260 -1.477680 -2.414820 13.843280 -14.952479 0.412900 -5.337860 -29.638901 8.358160 -0.412120 12.236240 7.183700 15.411901 3.353400 -78.626137 0.000000 -11.355121 0.000000 -3.851300 -2.610840 6.205640 0.000000 0.000000 0.000000 0.000000 0.000000 0.000000 -12.199880 -2.004280 -5.756640 3.033000 30.408119 77.746284 -0.000260 50.001980 0.000060 6.342880 -2.080320 -8.292781 0.000000 0.000000 0.000000 0.000000 0.000000 0.000000 
0.000000 33.742142 0.000000 35.003807 77.774872 -33.568161 -30.212036 5.391567 2.594954 18.053558 0.000000 0.000000 5.430441 0.889618 -0.582517 -14.714205 0.000000 0.000000 5.252977 -5.885085 -5.246742 30.424637 0.000000 0.000000 -10.942613 8.086612 -0.526598 -39.221329 0.000000 0.000000 -6.798038 4.303082 -1.468610 -0.434703 -1.384260 -2.850540 13.759994 -14.986300 0.375658 -5.143104 -29.856907 8.534079 -0.371548 12.230271 7.197150 15.183034 3.248692 -78.597084 0.000000 -11.384982 0.000000 -3.977950 -2.597322 6.137647 0.000000 0.000000 0.000000 0.000000 0.000000 0.000000 -12.045885 -2.164927 -5.782580 3.524550 30.556591 77.969513 -0.000262 49.380718 0.000062 6.636427 -2.047348 -8.229260 0.000000 0.000000 0.000000 0.000000 0.000000 0.000000 
0.000000 33.762886 0.000000 36.180141 77.965279 -34.184162 -30.166689 5.332633 1.689647 19.097216 0.000000 0.000000 4.994783 0.677157 0.690467 -14.531271 0.000000 0.000000 4.389174 -6.099790 -6.106283 32.744514 0.000000 0.000000 -9.354186 8.227963 -0.443477 -41.294720 0.000000 0.000000 -6.804237 4.179244 -1.653740 -0.597547 -1.446540 -3.309860 13.704206 -15.041923 0.356217 -5.052047 -30.037716 8.644297 -0.374177 12.249203 7.251400 14.938167 3.069483 -78.625336 0.000000 -11.367044 0.000000 -4.086800 -2.589103 6.087254 0.000000 0.000000 0.000000 0.000000 0.000000 0.000000 -11.844589 -2.215773 -5.851720 3.963200 30.539459 78.305038 -0.000263 48.729954 0.000063 6.890673 -2.054677 -8.135640 0.000000 0.000000 0.000000 0.000000 0.000000 0.000000 
0.000000 33.789333 0.000000 36.274868 77.928391 -33.812366 -30.024645 5.642400 1.045740 20.060875 0.000000 0.000000 4.416125 0.550895 1.880650 -14.360335 0.000000 0.000000 3.358870 -5.775595 -6.872525 35.387589 0.000000 0.000000 -7.734560 8.196315 -0.451455 -42.702709 0.000000 0.000000 -6.751735 4.271205 -1.789170 -0.705890 -1.298720 -3.707780 13.616920 -15.161345 0.343875 -4.991690 -30.277723 8.762815 -0.385205 12.102335 7.290050 14.641101 2.895875 -78.668282 0.000000 -11.388804 0.000000 -4.412850 -2.581385 6.012960 0.000000 0.000000 0.000000 0.000000 0.000000 0.000000 -11.702395 -2.380920 -5.979060 4.356650 30.479332 78.729874 -0.000265 47.993195 0.000065 7.059220 -2.111605 -8.025520 0.000000 0.000000 0.000000 0.000000 0.000000 0.000000 
0.000000 33.816479 0.000000 36.842999 78.002403 -33.925766 -29.889999 5.603467 0.309034 20.972534 0.000000 0.000000 3.837267 0.765333 2.958933 -14.191200 0.000000 0.000000 2.225766 -5.524000 -7.591267 38.163265 0.000000 0.000000 -6.132133 8.143667 -0.439733 -43.199100 0.000000 0.000000 -6.688533 4.203267 -1.927000 -0.820033 -1.307300 -4.078800 13.486934 -15.183167 0.292533 -4.932134 -30.451332 8.818633 -0.428233 12.088967 7.347500 14.320634 2.750467 -78.762733 0.000000 -11.427667 0.000000 -4.681700 -2.594367 5.933867 0.000000 0.000000 0.000000 0.000000 0.000000 0.000000 -11.577701 -2.392267 -6.160300 4.648800 30.414499 79.286301 -0.000167 47.106236 0.000067 7.112667 -2.130633 -7.990400 0.000000 0.000000 0.000000 0.000000 0.000000 0.000000 
0.000000 33.846626 0.000000 37.129730 78.000008 -33.830170 -29.679855 5.463333 -0.339273 21.721392 0.000000 0.000000 3.159108 1.107772 3.817917 -14.108365 0.000000 0.000000 0.985263 -5.087005 -8.212408 41.098640 0.000000 0.000000 -4.595606 8.024618 -0.688312 -42.775692 0.000000 0.000000 -6.648332 4.236329 -2.043830 -0.876277 -1.220780 -4.375420 13.430147 -15.315989 0.303392 -5.024677 -30.627743 8.816452 -0.424762 11.924198 7.388350 13.933867 2.604558 -78.889183 0.000000 -11.535628 0.000000 -5.060350 -2.599748 5.766273 0.000000 0.000000 0.000000 0.000000 0.000000 0.000000 -11.462605 -2.445613 -6.380640 4.918250 30.205669 79.904335 -0.000168 46.163872 0.000068 7.155013 -2.279662 -7.957980 0.000000 0.000000 0.000000 0.000000 0.000000 0.000000 
